<svg width="952" height="354" viewBox="0 0 952 354" fill="none" xmlns="http://www.w3.org/2000/svg">
<g filter="url(#filter0_d)">
<path fill-rule="evenodd" clip-rule="evenodd" d="M303.01 193.418C303.01 176.362 310.375 159.81 321.384 148.801C338.285 131.9 368.249 124.923 390.693 135.816C401.469 141.049 409.648 146.863 416.354 156.36C431.821 178.223 432.402 206.094 417.594 228.266C416.47 229.972 415.773 231.251 414.416 232.763C407.4 240.709 403.523 244.276 393.251 249.392C376.467 257.765 355.263 258.075 338.44 249.625C317.003 238.849 303.01 217.684 303.01 193.418ZM428.254 108.797C426.316 107.479 424.688 106.123 422.517 104.727C411.043 97.401 398.523 92.5168 384.917 89.8421C382.514 89.3382 378.443 88.6405 375.769 88.5242C362.899 87.904 357.395 87.0124 342.897 90.5786C323.012 95.4628 306.188 104.533 291.613 118.372C289.21 120.698 288.008 122.597 285.721 125.039C283.706 127.21 281.574 130.079 279.829 132.443C246.299 178.068 257.54 244.935 304.018 278.465C329.059 296.529 360.806 302.963 391.584 295.288C401.391 292.846 410.229 289.009 418.409 284.318C420.967 282.884 423.758 281.178 426.122 279.473C452.094 261.099 470.894 228.848 470.894 196.209V45.8069C470.894 37.2402 464.925 29.9914 458.335 26.9291C452.21 24.0606 446.086 24.5258 439.922 27.433C428.254 32.9375 428.254 44.5665 428.254 55.614C428.254 73.3289 428.254 91.0438 428.254 108.797Z" fill="white"/>
<path fill-rule="evenodd" clip-rule="evenodd" d="M585.634 256.37C538.304 256.37 510.161 205.357 528.962 167.524C530.784 163.88 531.985 161.632 534.272 158.182C535.59 156.205 536.017 155.43 537.528 153.724C542.606 148.104 538.149 151.98 544.855 146.359C549.816 142.173 552.53 140.39 558.81 137.211C582.649 125.272 611.45 130.815 630.909 150.236C636.801 156.089 642.81 165.315 645.368 173.571C646.027 175.703 646.376 177.525 646.919 179.696C650.214 192.449 648.314 208.652 643.004 219.312C635.755 233.887 626.607 244.004 611.528 250.788C605.209 253.618 594.704 256.37 585.634 256.37ZM480.701 190.627C480.701 211.172 483.298 221.367 490.276 237.686C496.943 253.23 512.487 271.139 526.171 280.171C550.63 296.335 580.013 303.312 608.737 296.257C626.645 291.877 638.817 286.101 652.888 274.666C708.708 229.313 704.909 135.816 631.336 98.7578C615.598 90.8113 601.41 88.4855 582.145 88.4855C549.468 88.4855 518.651 107.169 500.005 132.986C489.268 147.832 480.701 170.199 480.701 190.627Z" fill="white"/>
<path fill-rule="evenodd" clip-rule="evenodd" d="M82.6785 194.116C82.6785 159.655 111.518 131.164 142.103 131.164C155.282 131.164 160.399 131.552 172.61 137.056C192.689 146.088 207.884 168.958 207.884 191.325C207.884 211.559 202.574 224.855 188.813 238.733C171.369 256.331 143.343 260.944 120.24 250.982C116.829 249.548 113.302 247.493 110.356 245.477C93.6873 234.197 82.6785 215.009 82.6785 194.116ZM40 193.418C40 200.706 41.318 210.59 42.791 216.521C44.6904 224.429 46.4347 229.468 49.3807 236.523C53.6447 246.795 62.9479 259.975 71.0107 268.038L77.6005 274.046C83.3763 279.202 95.044 286.45 102.06 289.474C108.805 292.381 114.581 294.281 121.985 296.141C138.265 300.173 151.871 299.552 168.074 296.335C188.425 292.265 212.187 278.426 224.785 262.805C231.646 254.238 235.135 249.392 240.291 239.12C250.912 218.072 253.354 191.325 247.501 167.834C245.64 160.508 243.314 155.275 240.872 149.267C237.267 140.429 226.917 126.009 219.979 119.07C213.234 112.325 199.046 101.936 190.286 98.3702C170.516 90.3462 163.578 88.4855 141.405 88.4855C127.179 88.4855 110.084 93.6411 100.355 98.5253C64.4597 116.473 40 152.406 40 193.418Z" fill="white"/>
<path fill-rule="evenodd" clip-rule="evenodd" d="M806.004 256.37C797.708 256.37 787.048 253.85 781.273 251.021C773.598 247.299 768.442 244.431 762.783 238.733C743.827 219.622 737.78 190.356 749.332 167.524C756.232 153.879 764.178 144.189 778.521 137.289C803.174 125.388 831.433 130.544 851.279 150.236C880.972 179.657 871.902 232.918 831.859 250.788C825.541 253.618 815.074 256.37 806.004 256.37ZM701.071 189.929C701.071 222.568 710.84 246.873 732.702 268.813C737.78 273.891 747.82 281.799 754.216 285.055C786.428 301.568 814.454 303.7 848.566 289.861C857.288 286.334 869.615 278.543 876.476 271.604C878.026 270.015 878.879 269.627 880.236 268.387L892.02 254.277C900.393 242.454 904.928 232.104 908.533 217.645C912.758 200.822 912.216 187.526 908.882 170.974C899.889 125.853 856.125 88.4855 810.19 88.4855C779.49 88.4855 757.937 96.0056 735.493 115.93L725.764 125.776C711.227 142.948 701.071 167.175 701.071 189.929Z" fill="white"/>
</g>
<defs>
<filter id="filter0_d" x="0" y="0" width="951.542" height="354" filterUnits="userSpaceOnUse" color-interpolation-filters="sRGB">
<feFlood flood-opacity="0" result="BackgroundImageFix"/>
<feColorMatrix in="SourceAlpha" type="matrix" values="0 0 0 0 0 0 0 0 0 0 0 0 0 0 0 0 0 0 127 0"/>
<feOffset dy="15"/>
<feGaussianBlur stdDeviation="20"/>
<feColorMatrix type="matrix" values="0 0 0 0 0.768627 0 0 0 0 0.768627 0 0 0 0 0.768627 0 0 0 0.5 0"/>
<feBlend mode="normal" in2="BackgroundImageFix" result="effect1_dropShadow"/>
<feBlend mode="normal" in="SourceGraphic" in2="effect1_dropShadow" result="shape"/>
</filter>
</defs>
</svg>
