<svg xmlns="http://www.w3.org/2000/svg" width="621" height="196" fill="none" viewBox="0 0 621 196"><path fill="url(#paint0_linear)" d="M546 196C504.579 196 471 162.421 471 121C471 79.579 504.579 46 546 46C587.421 46 621 79.579 621 121C621 162.421 587.421 196 546 196ZM546 165C570.3 165 590 145.3 590 121C590 96.7 570.3 77 546 77C521.7 77 502 96.7 502 121C502 145.3 521.7 165 546 165ZM389 196C347.579 196 314 162.421 314 121C314 79.579 347.579 46 389 46C430.421 46 464 79.579 464 121C464 162.421 430.421 196 389 196ZM389 165C413.3 165 433 145.3 433 121C433 96.7 413.3 77 389 77C364.7 77 345 96.7 345 121C345 145.3 364.7 165 389 165ZM307 120C307 161.935 273.408 196 231.991 196C190.575 196 157 162.005 157 120.07C157 78.134 187.5 46 231.991 46C248.433 46 263.638 49.496 275.998 58.58L276 15.09C276 6.756 283.27 0 291.5 0C299.728 0 307 6.762 307 15.09V120ZM232 165C256.3 165 276 145.3 276 121C276 96.7 256.3 77 232 77C207.7 77 188 96.7 188 121C188 145.3 207.7 165 232 165Z"/><path fill="url(#paint1_linear)" d="M75 196C33.579 196 0 162.421 0 121C0 79.579 33.579 46 75 46C116.421 46 150 79.579 150 121C150 162.421 116.421 196 75 196ZM75 165C99.3 165 119 145.3 119 121C119 96.7 99.3 77 75 77C50.7 77 31 96.7 31 121C31 145.3 50.7 165 75 165Z"/><defs><linearGradient id="paint0_linear" x1="75" x2="75" y1="46" y2="196" gradientUnits="userSpaceOnUse"><stop stop-color="#2D93FC"/><stop offset="1" stop-color="#5147FB"/></linearGradient><linearGradient id="paint1_linear" x1="75" x2="75" y1="46" y2="196" gradientUnits="userSpaceOnUse"><stop stop-color="#2D93FC"/><stop offset="1" stop-color="#5147FB"/></linearGradient></defs></svg>