<svg width="774" height="398" viewBox="0 0 774 398" fill="none" xmlns="http://www.w3.org/2000/svg">
<g filter="url(#filter0_i_98_1020)">
<path d="M304.894 173.825C314.008 173.831 322.92 171.128 330.5 166.059C338.081 160.989 343.991 153.78 347.483 145.344C350.975 136.908 351.892 127.623 350.117 118.665C348.343 109.707 343.957 101.477 337.514 95.0172C331.072 88.5571 322.862 84.1568 313.924 82.3729C304.985 80.589 295.72 81.5016 287.299 84.9953C278.878 88.4889 271.68 94.4068 266.616 102C261.552 109.594 258.849 118.521 258.849 127.654C258.847 133.716 260.037 139.718 262.35 145.319C264.662 150.919 268.054 156.009 272.329 160.296C276.605 164.583 281.682 167.985 287.269 170.306C292.857 172.628 298.846 173.823 304.894 173.825ZM383.422 126.683C383.422 170.83 348.143 206.694 304.658 206.694C261.172 206.694 225.937 170.904 225.937 126.757C225.937 82.6106 257.969 48.7776 304.687 48.7776C321.95 48.7776 337.917 52.4849 350.895 62.0201V16.2348C350.866 7.50034 358.531 0.345215 367.144 0.345215C375.757 0.345215 383.422 7.50034 383.422 16.2348V126.683ZM469.165 173.825C478.279 173.831 487.19 171.128 494.771 166.059C502.352 160.989 508.262 153.78 511.754 145.344C515.245 136.908 516.162 127.623 514.388 118.665C512.613 109.707 508.227 101.477 501.785 95.0172C495.342 88.5571 487.132 84.1568 478.194 82.3729C469.256 80.589 459.99 81.5016 451.569 84.9953C443.148 88.4889 435.95 94.4068 430.886 102C425.822 109.594 423.119 118.521 423.119 127.654C423.117 139.895 427.967 151.636 436.602 160.294C445.237 168.952 456.949 173.819 469.165 173.825ZM469.165 206.353C453.631 206.356 438.446 201.743 425.529 193.097C412.612 184.452 402.543 172.162 396.597 157.781C390.651 143.401 389.093 127.577 392.122 112.31C395.15 97.0431 402.629 83.0189 413.612 72.0112C424.595 61.0034 438.588 53.5066 453.823 50.4688C469.058 47.431 484.849 48.9886 499.201 54.9447C513.552 60.9008 525.818 70.9878 534.449 83.9301C543.079 96.8724 547.685 112.089 547.685 127.654C547.689 148.52 539.422 168.533 524.703 183.292C509.983 198.05 490.017 206.345 469.194 206.353H469.165ZM633.516 173.825C642.63 173.831 651.541 171.128 659.122 166.059C666.703 160.989 672.613 153.78 676.105 145.344C679.597 136.908 680.514 127.623 678.739 118.665C676.965 109.707 672.579 101.477 666.136 95.0172C659.694 88.5571 651.484 84.1568 642.546 82.3729C633.607 80.589 624.341 81.5016 615.921 84.9953C607.5 88.4889 600.302 94.4068 595.238 102C590.174 109.594 587.471 118.521 587.471 127.654C587.469 133.716 588.658 139.718 590.971 145.319C593.284 150.919 596.675 156.009 600.951 160.296C605.227 164.583 610.304 167.985 615.891 170.306C621.479 172.628 627.468 173.823 633.516 173.825ZM633.516 206.353C617.981 206.364 602.792 201.757 589.87 193.115C576.948 184.474 566.874 172.187 560.922 157.807C554.97 143.428 553.407 127.602 556.432 112.333C559.456 97.0634 566.932 83.0357 577.913 72.0243C588.895 61.0129 602.888 53.5124 618.124 50.4715C633.36 47.4307 649.153 48.9862 663.507 54.9412C677.86 60.8962 690.129 70.9832 698.761 83.9263C707.393 96.8694 712 112.087 712 127.654C712.006 148.519 703.741 168.532 689.022 183.291C674.304 198.05 654.338 206.345 633.516 206.353Z" fill="white"/>
<path d="M140.587 173.825C149.701 173.83 158.611 171.126 166.191 166.055C173.771 160.984 179.68 153.775 183.171 145.339C186.661 136.902 187.577 127.618 185.802 118.661C184.026 109.703 179.64 101.474 173.197 95.0146C166.754 88.5552 158.545 84.1556 149.606 82.3723C140.668 80.589 131.403 81.502 122.982 84.996C114.562 88.4899 107.365 94.4077 102.301 102.001C97.2372 109.594 94.5344 118.522 94.5344 127.654C94.5325 133.716 95.7222 139.719 98.0356 145.32C100.349 150.922 103.741 156.011 108.017 160.299C112.294 164.586 117.371 167.987 122.96 170.308C128.548 172.629 134.538 173.824 140.587 173.825ZM140.587 206.353C125.052 206.364 109.863 201.757 96.9412 193.115C84.0193 184.474 73.9452 172.187 67.9931 157.807C62.041 143.428 60.4783 127.602 63.5028 112.333C66.5272 97.0634 74.0029 83.0357 84.9842 72.0243C95.9655 61.0129 109.959 53.5124 125.195 50.4715C140.431 47.4307 156.224 48.9862 170.578 54.9412C184.931 60.8962 197.2 70.9832 205.832 83.9263C214.463 96.8694 219.071 112.087 219.071 127.654C219.077 148.52 210.811 168.532 196.093 183.291C181.375 198.05 161.409 206.345 140.587 206.353Z" fill="white"/>
</g>
<g filter="url(#filter1_d_98_1020)">
<rect x="64" y="234.488" width="646" height="99.1746" rx="49.5873" stroke="#28FFE5" stroke-width="4"/>
</g>
<path d="M169.717 302.488H193.459V297.615H175.378V286.129H192.012V281.274H175.378V269.843H193.239V264.97H169.717V302.488ZM219.184 264.97H212.625L224.514 283.729L212.552 302.488H219.147L228.16 288.016H228.453L237.466 302.488H244.061L232.3 283.729L243.988 264.97H237.43L228.453 279.644H228.16L219.184 264.97ZM264.047 302.488H269.708V289.298H277.402C286.104 289.298 290.409 284.04 290.409 277.116C290.409 270.209 286.14 264.97 277.42 264.97H264.047V302.488ZM269.708 284.498V269.825H276.816C282.422 269.825 284.711 272.866 284.711 277.116C284.711 281.366 282.422 284.498 276.889 284.498H269.708ZM311.489 302.488H335.231V297.615H317.15V286.129H333.784V281.274H317.15V269.843H335.011V264.97H311.489V302.488ZM357.017 302.488H362.678V288.291H370.372C370.5 288.291 370.61 288.291 370.738 288.291L378.359 302.488H384.808L376.491 287.301C381.089 285.598 383.379 281.769 383.379 276.731C383.379 269.825 379.092 264.97 370.39 264.97H357.017V302.488ZM362.678 283.418V269.825H369.786C375.373 269.825 377.681 272.481 377.681 276.731C377.681 280.963 375.373 283.418 369.859 283.418H362.678ZM410.372 264.97H404.711V302.488H410.372V264.97ZM433.06 302.488H456.802V297.615H438.721V286.129H455.355V281.274H438.721V269.843H456.582V264.97H433.06V302.488ZM508.87 264.97H503.264V292.522H502.916L483.827 264.97H478.588V302.488H484.249V274.972H484.597L503.667 302.488H508.87V264.97ZM562.733 277.171C561.451 269.147 555.167 264.457 547.235 264.457C537.526 264.457 530.363 271.73 530.363 283.729C530.363 295.728 537.489 303.001 547.235 303.001C555.479 303.001 561.506 297.835 562.733 290.416L557.017 290.397C556.046 295.197 552.016 297.835 547.271 297.835C540.841 297.835 535.987 292.907 535.987 283.729C535.987 274.624 540.823 269.623 547.29 269.623C552.071 269.623 556.083 272.316 557.017 277.171H562.733ZM583.951 302.488H607.693V297.615H589.612V286.129H606.246V281.274H589.612V269.843H607.473V264.97H583.951V302.488Z" fill="#28FFE5"/>
<defs>
<filter id="filter0_i_98_1020" x="62" y="0.345215" width="650" height="210.326" filterUnits="userSpaceOnUse" color-interpolation-filters="sRGB">
<feFlood flood-opacity="0" result="BackgroundImageFix"/>
<feBlend mode="normal" in="SourceGraphic" in2="BackgroundImageFix" result="shape"/>
<feColorMatrix in="SourceAlpha" type="matrix" values="0 0 0 0 0 0 0 0 0 0 0 0 0 0 0 0 0 0 127 0" result="hardAlpha"/>
<feOffset dy="3.97676"/>
<feGaussianBlur stdDeviation="1.98838"/>
<feComposite in2="hardAlpha" operator="arithmetic" k2="-1" k3="1"/>
<feColorMatrix type="matrix" values="0 0 0 0 0 0 0 0 0 0 0 0 0 0 0 0 0 0 0.25 0"/>
<feBlend mode="normal" in2="shape" result="effect1_innerShadow_98_1020"/>
</filter>
<filter id="filter1_d_98_1020" x="0.0952406" y="170.583" width="773.81" height="226.984" filterUnits="userSpaceOnUse" color-interpolation-filters="sRGB">
<feFlood flood-opacity="0" result="BackgroundImageFix"/>
<feColorMatrix in="SourceAlpha" type="matrix" values="0 0 0 0 0 0 0 0 0 0 0 0 0 0 0 0 0 0 127 0" result="hardAlpha"/>
<feMorphology radius="10.3175" operator="dilate" in="SourceAlpha" result="effect1_dropShadow_98_1020"/>
<feOffset/>
<feGaussianBlur stdDeviation="25.7936"/>
<feColorMatrix type="matrix" values="0 0 0 0 0.158464 0 0 0 0 1 0 0 0 0 0.899015 0 0 0 1 0"/>
<feBlend mode="normal" in2="BackgroundImageFix" result="effect1_dropShadow_98_1020"/>
<feBlend mode="normal" in="SourceGraphic" in2="effect1_dropShadow_98_1020" result="shape"/>
</filter>
</defs>
</svg>
